<svg width="256" height="256" viewBox="0 0 256 256" fill="none" xmlns="http://www.w3.org/2000/svg">
  <defs>
    <linearGradient id="bg" x1="40" y1="24" x2="216" y2="232" gradientUnits="userSpaceOnUse">
      <stop stop-color="#133152"/>
      <stop offset="1" stop-color="#08111D"/>
    </linearGradient>
    <linearGradient id="accent" x1="48" y1="52" x2="208" y2="204" gradientUnits="userSpaceOnUse">
      <stop stop-color="#2FE07C"/>
      <stop offset="0.5" stop-color="#F7F7F7"/>
      <stop offset="1" stop-color="#F25353"/>
    </linearGradient>
  </defs>
  <rect x="20" y="20" width="216" height="216" rx="56" fill="url(#bg)"/>
  <rect x="30" y="30" width="196" height="196" rx="46" stroke="rgba(255,255,255,0.12)" stroke-width="2"/>
  <path d="M54 84C54 68.536 66.536 56 82 56H174C189.464 56 202 68.536 202 84V172C202 187.464 189.464 200 174 200H82C66.536 200 54 187.464 54 172V84Z" fill="#0C1A2B" stroke="url(#accent)" stroke-width="8"/>
  <path d="M92 88L78 128L92 168" stroke="#24496E" stroke-width="8" stroke-linecap="round"/>
  <path d="M164 88L178 128L164 168" stroke="#24496E" stroke-width="8" stroke-linecap="round"/>
  <path d="M128 72V184" stroke="#24496E" stroke-width="8" stroke-linecap="round"/>
  <circle cx="128" cy="128" r="26" fill="#10233A" stroke="url(#accent)" stroke-width="8"/>
  <path d="M95 128H161" stroke="#24496E" stroke-width="8" stroke-linecap="round"/>
  <path d="M86 54C95 46 111 40 128 40C145 40 161 46 170 54" stroke="url(#accent)" stroke-width="7" stroke-linecap="round"/>
  <path d="M87 203C96 211 111 216 128 216C145 216 160 211 169 203" stroke="url(#accent)" stroke-width="7" stroke-linecap="round"/>
</svg>
